# xmcd
#
# Track frame offsets:
#	150
#	19580
#	39047
#	54287
#	82607
#	113747
#	132572
#	178892
#	200207
#	227849
#	255539
#	271509
#	289647
#
# Disc length: 4411 seconds
#
# Revision: 0
# Processed by: cddbd v1.5.1PL0 Copyright (c) Steve Scherf et al.
# Submitted via: dBpowerAMP V4.0
#
DISCID=a411390d
DTITLE=VAN MORRISON - A night in San Francisco CD1
DYEAR=1900
DGENRE=Blues
TTITLE0=Did ye get healed?
TTITLE1=It's all in the game/Make it real one more time
TTITLE2=I've been working
TTITLE3=I forgot that love existed
TTITLE4=Vanlose stairway/Trans-Euro train/Fool for you
TTITLE5=You make me feel so free
TTITLE6=Beautiful vision
TTITLE7=See me through/Soldier of fortune/thank you falettinme be mice eff agin
TTITLE8=ain't that loving you baby?
TTITLE9=Stormy Monday/Have you ever loved a woman?/No rollin' blues
TTITLE10=Help me
TTITLE11=Good morning little school girl
TTITLE12=Tupelo honey
EXTD=
EXTT0=
EXTT1=
EXTT2=
EXTT3=
EXTT4=
EXTT5=
EXTT6=
EXTT7=
EXTT8=
EXTT9=
EXTT10=
EXTT11=
EXTT12=
PLAYORDER=
